inDegrees=yes
name=IK_Results.mot
DataType=double
version=3
OpenSimVersion=4.4-2022-08-12-dcf8e2cb1
endheader
time	TH_x	TH_y	TH_z	TH_transx	TH_transy	TH_transz	SC_y	SC_z	SC_x	AC_y	AC_z	AC_x	GH_y	GH_z	GH_yy	EL_x	PS_y
3.059999999999979	-336.9429232858652	-74.08742374911986	-170.3179557230168	0	0	0	-38.54663050902433	13.47255760608028	19.93671261877866	52.20771310401258	-8.702047082563244	4.760370265790073	5.156377432069161	-7.411948051631631	-0.9027119739842859	13.55902273615737	89.3690320674811
3.069999999999979	-338.3619391995265	-74.83702977076925	-173.317676244256	0	0	0	-38.71508905916377	14.35139004724935	20.13131360833795	52.26616326915781	-8.032462418976408	4.14921047887067	5.457055040236523	-6.761056043668578	-0.7266064172580083	14.17157766838212	89.31560121610013
3.079999999999978	-338.3675347181073	-74.83534193504516	-173.3199155081336	0	0	0	-38.71887341504473	14.35469071268163	20.13305337370818	52.24883195519752	-8.033109094333772	4.148598172131124	5.464490852137004	-6.76797794863709	-0.7154821152413321	14.17670330158896	89.325138691123
3.089999999999978	-339.396246634052	-74.65960680816647	-175.8561288538125	0	0	0	-38.80284443354929	14.76995271318001	20.41212682529999	52.24013060576809	-7.631093597887708	3.936392351894476	5.206022628930858	-6.235645471674411	-0.8735018074478538	15.79171084831277	89.19318975025153
3.099999999999978	-339.6146220465411	-73.72971007245822	-175.903854151388	0	0	0	-38.95854129922298	14.25834544543628	20.33461282417309	51.9357237196453	-7.97044979227961	4.277822633797607	4.737653677163446	-6.520422832197111	-1.248506780529665	15.17781869826599	89.26181441545708
3.109999999999978	-341.9696788467089	-73.89813419583403	-177.571228064859	0	0	0	-39.10131823500314	14.12744286191777	20.07558199926579	51.79690085992117	-8.263964770501335	4.238168662996639	4.431487713893098	-6.825955385985861	-1.510733918203758	14.28311222208665	89.30810413658749
3.119999999999977	-342.6689759519097	-74.00503760325809	-178.1185541227783	0	0	0	-38.76650620388774	14.36274274926623	20.22531430953106	52.14104998664046	-8.085725994995386	4.176197741241343	4.897703149411127	-6.662779456132434	-1.070429241230158	13.61873009006245	89.35865842103942
3.129999999999977	-342.6832719157555	-73.99697305095322	-178.121637902358	0	0	0	-38.7653798349893	14.37413848278868	20.22445724010092	52.13538726275844	-8.085710967493293	4.174972227170699	4.894590949635073	-6.675645403374141	-1.068698916639446	13.64019132875659	89.36150448596335
3.139999999999977	-338.8073755546817	-73.67427386909938	-175.2127362401312	0	0	0	-37.71184701951465	13.98470831929835	21.18770053711672	52.72196141188634	-7.729842751674886	5.159190735055033	5.914366085625791	-6.25660893500851	0.01676811734818344	11.74689155342162	89.50050003646753
3.149999999999977	-345.3688407142218	-71.58725246305991	-180.6431312604423	0	0	0	-37.19133389319428	13.80299225993302	20.8686975881625	53.15333896936458	-8.271083514751792	5.197840927310811	5.934026976489037	-6.642164236666957	0.1650358067705453	10.29980363599407	89.60620630815409
3.159999999999977	-350.6495086450031	-72.00675536383773	-184.3822543644867	0	0	0	-37.25876091176838	14.29674904655772	19.82827400888839	53.46040946597304	-8.885368243559965	4.379655919807347	5.384463610973895	-7.599589704728153	-0.3140641020361591	11.65735936427797	89.50733848946251
3.169999999999976	-355.1461945937077	-72.30693428981986	-188.576752369195	0	0	0	-38.30438114848915	14.83066630780537	18.9105993639299	52.82931984750454	-9.113712356478354	3.328520366852362	4.285273854543337	-7.877956812879432	-1.447893997695241	13.19482854236076	89.39432441517143
3.179999999999976	-349.666512157272	-72.92487956565421	-183.7314067387091	0	0	0	-36.2966962223771	13.78894050948998	20.48036725049061	53.96552640846714	-8.712225979376212	5.221747069914987	6.550003348081477	-7.358638822100999	0.888802910352992	5.992145969796604	89.92788820292438
3.189999999999976	-349.6697431215435	-72.91173558943707	-183.7147226478287	0	0	0	-36.29869400210687	13.7924833718255	20.4586233759849	53.95713983514582	-8.703992301539122	5.217537652640065	6.569642457078151	-7.387889431363974	0.9096776548792173	6.027057988555552	89.92769254317928
3.199999999999976	-349.6537577629497	-72.93736306528275	-183.7146945854564	0	0	0	-36.34966490477214	13.78504008904106	20.45151488768187	53.86621270468837	-8.667595245571693	5.219228513906141	6.622863569421201	-7.40568677434997	0.9606349418841174	6.00499918437371	89.93271487859001
3.209999999999976	-349.6441973658845	-72.93052134745078	-183.710261662342	0	0	0	-36.37014810307639	13.80391650281238	20.45158378468379	53.79179726267709	-8.657262255699438	5.223537324465056	6.670418821797209	-7.429008108628983	1.01167647428811	6.010251271073207	89.9256483478654
3.219999999999975	-348.0446131868754	-73.14936411359406	-182.14182185201	0	0	0	-34.96003167883363	14.49977918834754	20.75657574013653	55.24036132408607	-8.319423139048045	4.963798837679132	8.768024729244779	-7.254593373972535	2.952657913761514	8.506432294239593	89.77282077163537
3.229999999999975	-349.5311089320275	-71.24477645134969	-183.3216553629677	0	0	0	-34.79439684169017	14.0403113863025	20.71242746766674	55.21430053821834	-8.673001092150045	5.354418465535785	8.560452934780646	-7.516584200067538	2.901264402186005	8.300842149212254	89.75568323703014
3.239999999999975	-349.5534467693919	-71.24224097029852	-183.3109039473303	0	0	0	-34.78533703455837	14.05695698793918	20.74492316513685	55.22014491351175	-8.638592869201441	5.358517586477948	8.576724856898355	-7.480471098314919	2.916845286703631	8.297394293944983	89.7604890464241
3.249999999999975	-343.4801937754565	-72.2597992717573	-178.8905287289434	0	0	0	-36.46835447163897	13.62400706865464	21.24744599588213	53.29293435774903	-8.104597633406206	5.681842780607194	6.372672994627229	-6.713680742491309	0.8707328230831143	7.963004054432979	89.78794680005268
3.259999999999974	-344.353218676926	-70.14921353413865	-179.5335657830084	0	0	0	-36.33601039833155	13.28340187299967	21.47124783964532	53.19664640731713	-8.27275337653683	6.131531573565708	5.851976940304981	-6.747790803407992	0.5828496946034447	10.16830517904049	89.62055331021206
3.269999999999974	-345.5424229078245	-70.16802769457426	-180.3917388819609	0	0	0	-37.03166705930052	13.22916389347059	21.1143199478212	52.54635240755385	-8.520032143779533	5.907982823777193	4.886801167780605	-6.923724136254955	-0.3088767348964112	11.91290512745974	89.49291113435896
3.279999999999974	-345.3562852783589	-70.18157339849311	-180.1461687410585	0	0	0	-37.02382159043167	13.25025493082859	21.1648038174342	52.53646410376135	-8.483502406870294	5.926476812382172	4.903585072440387	-6.886441696724348	-0.286291853883489	12.05440818135526	89.47980553150687
3.289999999999974	-343.396019152427	-71.77783474199602	-178.3914637996558	0	0	0	-38.21649927486733	13.45415670185954	20.68258086532348	51.44448331145676	-8.71956538272981	5.414567548143651	3.046459934095505	-6.937164794900968	-1.96758177026	19.44421889111386	88.93964171207838
